<?xml version="1.0" standalone="no"?>
<!DOCTYPE svg PUBLIC "-//W3C//DTD SVG 20010904//EN" "http://www.w3.org/TR/2001/REC-SVG-20010904/DTD/svg10.dtd">
<!-- Created using Krita: https://krita.org -->
<svg xmlns="http://www.w3.org/2000/svg" 
    xmlns:xlink="http://www.w3.org/1999/xlink"
    xmlns:krita="http://krita.org/namespaces/svg/krita"
    xmlns:sodipodi="http://sodipodi.sourceforge.net/DTD/sodipodi-0.dtd"
    width="165.6pt"
    height="165.6pt"
    viewBox="0 0 165.6 165.6">
<defs/>
<path id="shape0" transform="matrix(0.1728618336 0 0 0.1728618336 6.11999733686689 6.1226628520725)" fill="none" stroke="#a84b38" stroke-width="34.56" stroke-linecap="round" stroke-linejoin="round" d="M443.583 110.892L443.583 110.784L0 0L221.787 0L443.583 110.784" sodipodi:nodetypes="ccccc"/><path id="shape1" transform="matrix(0.1728618336 0 0 0.1728618336 82.7985334982889 6.12268013825576)" fill="none" stroke="#a84b38" stroke-width="34.56" stroke-linecap="round" stroke-linejoin="round" d="M0.0001 110.892L0.0001 110.784L443.599 0L221.787 0L0 110.784" sodipodi:nodetypes="ccccc"/><path id="shape2" transform="matrix(0.1728618336 0 0 0.1728618336 82.798533498289 140.287992106044)" fill="none" stroke="#a84b38" stroke-width="34.56" stroke-linecap="round" stroke-linejoin="round" d="M0.0001 0.1139L443.599 111.008L221.787 111.008L0 0" sodipodi:nodetypes="cccc"/><path id="shape3" transform="matrix(0.1728618336 0 0 0.1728618336 6.11999733686689 140.287992106044)" fill="none" stroke="#a84b38" stroke-width="34.56" stroke-linecap="round" stroke-linejoin="round" d="M443.583 0.1139L0 111.008L221.787 111.008L443.583 0" sodipodi:nodetypes="cccc"/><path id="shape4" transform="matrix(0.1728618336 0 0 0.1728618336 6.11999733686689 82.7776898041249)" fill="none" stroke="#a84b38" stroke-width="34.56" stroke-linecap="round" stroke-linejoin="round" d="M110.894 0.126L110.894 0L0 443.703L0 221.936L110.894 0" sodipodi:nodetypes="ccccc"/><path id="shape5" transform="matrix(0.1728618336 0 0 0.1728618336 6.11999733686689 6.1226628520725)" fill="none" stroke="#a84b38" stroke-width="34.56" stroke-linecap="round" stroke-linejoin="round" d="M110.894 443.573L110.894 443.447L0 0L0 221.785L110.894 443.447" sodipodi:nodetypes="ccccc"/><path id="shape6" transform="matrix(0.1728618336 0 0 0.1728618336 140.307815915389 6.1226628520725)" fill="none" stroke="#a84b38" stroke-width="34.56" stroke-linecap="round" stroke-linejoin="round" d="M0 443.573L0 443.447L110.894 0L110.894 221.785L0 443.447" sodipodi:nodetypes="ccccc"/><path id="shape7" transform="matrix(0.1728618336 0 0 0.1728618336 140.307815915389 82.7773267942745)" fill="none" stroke="#a84b38" stroke-width="34.56" stroke-linecap="round" stroke-linejoin="round" d="M0 0.1281L110.894 443.697L110.894 221.938L0 0" sodipodi:nodetypes="cccc"/><path id="shape8" transform="matrix(0.1728618336 0 0 0.1728618336 6.11999733686689 6.1226628520725)" fill="none" stroke="#a84b38" stroke-width="34.56" stroke-linecap="round" stroke-linejoin="round" d="M0 0L443.583 110.892L110.894 443.398L0 0.2259" sodipodi:nodetypes="cccc"/><path id="shape9" transform="matrix(0.1728618336 0 0 0.1728618336 6.11999733686688 82.7998334050091)" fill="none" stroke="#a84b38" stroke-width="34.56" stroke-linecap="round" stroke-linejoin="round" d="M2.84217e-14 443.575L110.894 0L443.583 332.437L0 443.123" sodipodi:nodetypes="cccc"/><path id="shape10" transform="matrix(0.1728618336 0 0 0.1728618336 82.7985507844723 6.12266285207248)" fill="none" stroke="#a84b38" stroke-width="34.56" stroke-linecap="round" stroke-linejoin="round" d="M443.599 0L332.689 443.555L0 110.874L443.599 0.2259" sodipodi:nodetypes="cccc"/><path id="shape11" transform="matrix(0.1728618336 0 0 0.1728618336 82.7985507844723 82.7998334050091)" fill="none" stroke="#a84b38" stroke-width="34.56" stroke-linecap="round" stroke-linejoin="round" d="M443.599 443.575L0 332.689L332.689 0L443.599 443.123" sodipodi:nodetypes="cccc"/><path id="shape12" transform="matrix(0.1728618336 0 0 0.1728618336 25.2892856535552 25.2726425019477)" fill="none" stroke="#a84b38" stroke-width="34.56" stroke-linecap="round" stroke-linejoin="round" d="M332.689 0.1099L0 332.791L332.689 665.474L665.378 332.773L332.689 0" sodipodi:nodetypes="ccccc"/><path id="shape13" transform="translate(105.119996022685, 150.299994313257)" fill="none" stroke="#a84b38" stroke-width="5.8824" stroke-linecap="square" stroke-linejoin="miter" stroke-miterlimit="2" d="M0 0L33.12 7.02" sodipodi:nodetypes="cc"/><path id="shape14" transform="translate(30.2399988558409, 150.839994292825)" fill="none" stroke="#a84b38" stroke-width="5.8824" stroke-linecap="square" stroke-linejoin="miter" stroke-miterlimit="2" d="M0 6.48L27.54 0" sodipodi:nodetypes="cc"/><path id="shape15" transform="translate(7.91999970033927, 106.91999595458)" fill="none" stroke="#a84b38" stroke-width="5.8824" stroke-linecap="square" stroke-linejoin="miter" stroke-miterlimit="2" d="M7.2 0L0 29.7" sodipodi:nodetypes="cc"/><path id="shape16" transform="translate(8.23499993384311, 31.9949997429642)" fill="none" stroke="#a84b38" stroke-width="5.8824" stroke-linecap="square" stroke-linejoin="miter" stroke-miterlimit="2" d="M0 0L6.885 22.95" sodipodi:nodetypes="cc"/><path id="shape17" transform="translate(30.1049997581477, 8.23499993384311)" fill="none" stroke="#a84b38" stroke-width="5.8824" stroke-linecap="square" stroke-linejoin="miter" stroke-miterlimit="2" d="M0 0L24.435 6.345" sodipodi:nodetypes="cc"/><path id="shape18" transform="translate(107.324999137791, 8.36999993275857)" fill="none" stroke="#a84b38" stroke-width="5.8824" stroke-linecap="square" stroke-linejoin="miter" stroke-miterlimit="2" d="M28.89 0L0 7.29" sodipodi:nodetypes="cc"/><path id="shape19" transform="translate(149.714998797246, 29.294999764655)" fill="none" stroke="#a84b38" stroke-width="5.8824" stroke-linecap="square" stroke-linejoin="miter" stroke-miterlimit="2" d="M7.155 0L0 30.375" sodipodi:nodetypes="cc"/><path id="shape20" transform="translate(150.254994314961, 108.539995893287)" fill="none" stroke="#a84b38" stroke-width="5.8824" stroke-linecap="square" stroke-linejoin="miter" stroke-miterlimit="2" d="M0 0L7.695 29.025" sodipodi:nodetypes="cc"/>
</svg>
